# xmcd
#
# Track frame offsets:
#	150
#	14028
#	26339
#	42519
#	57141
#	66838
#	82360
#	98729
#	108679
#	125206
#	138820
#	153375
#	165784
#	178152
#	189941
#
# Disc length: 2707 seconds
#
# Revision: 1
# Processed by: cddbd v1.4PL0 Copyright (c) Steve Scherf et al.
# Submitted via: EasyCDDAExtractor 5.1.0
#
DISCID=cc0a910f
DTITLE=Ottawa County Bluegrass Band - Bluegrass State Of Mind
DYEAR=2002
DGENRE=Bluegrass
TTITLE0=Lonesome Without You
TTITLE1=Carolina Star
TTITLE2=Just Like You
TTITLE3=Blue Ridge Cabin Home
TTITLE4=Love Come Home
TTITLE5=Sing Me Back Home
TTITLE6=Small Exception Of Me
TTITLE7=Pike County Breakdown
TTITLE8=Almost Threw Your Love Away
TTITLE9=Rose Of Old Kentucky
TTITLE10=In The Pines
TTITLE11=Take Your Shoes Off Moses
TTITLE12=Old Country Church
TTITLE13=Swing Low Sweet Chariot
TTITLE14=In The Garden
EXTD=
EXTT0=
EXTT1=
EXTT2=
EXTT3=
EXTT4=
EXTT5=
EXTT6=
EXTT7=
EXTT8=
EXTT9=
EXTT10=
EXTT11=
EXTT12=
EXTT13=
EXTT14=
PLAYORDER=
